HIERARCHY
ROOT Hips
{
  OFFSET -35.2597 29.1586 114.425
  CHANNELS 6 Xposition Yposition Zposition Zrotation Xrotation Yrotation
  JOINT LeftUpLeg
  {
    OFFSET 8.64259 1.95398 -2.38835
    CHANNELS 3 Zrotation Xrotation Yrotation
    JOINT LeftLeg
    {
      OFFSET 43.7702 0 0
      CHANNELS 3 Zrotation Xrotation Yrotation
      JOINT LeftFoot
      {
        OFFSET 40.6238 0 0
        CHANNELS 3 Zrotation Xrotation Yrotation
        JOINT LeftToeBase
        {
          OFFSET 12.7242 0 0
          CHANNELS 3 Zrotation Xrotation Yrotation
          End Site
          {
            OFFSET 0 0 0
          }
        }
      }
    }
  }
  JOINT RightUpLeg
  {
    OFFSET -8.2249 1.95398 -2.59336
    CHANNELS 3 Zrotation Xrotation Yrotation
    JOINT RightLeg
    {
      OFFSET 43.5653 0 0
      CHANNELS 3 Zrotation Xrotation Yrotation
      JOINT RightFoot
      {
        OFFSET 40.6238 0 0
        CHANNELS 3 Zrotation Xrotation Yrotation
        JOINT RightToeBase
        {
          OFFSET 12.7242 0 0
          CHANNELS 3 Zrotation Xrotation Yrotation
          End Site
          {
            OFFSET 0 0 0
          }
        }
      }
    }
  }
  JOINT Spine
  {
    OFFSET 0.165834 0.87714 6.61349
    CHANNELS 3 Zrotation Xrotation Yrotation
    JOINT Spine1
    {
      OFFSET 7.38963 1.71661e-005 0
      CHANNELS 3 Zrotation Xrotation Yrotation
      JOINT Spine2
      {
        OFFSET 11.9445 1.14441e-005 0
        CHANNELS 3 Zrotation Xrotation Yrotation
        JOINT Spine3
        {
          OFFSET 14.7254 4.19617e-005 0
          CHANNELS 3 Zrotation Xrotation Yrotation
          JOINT Spine4
          {
            OFFSET 10.9679 0 0
            CHANNELS 3 Zrotation Xrotation Yrotation
            JOINT RightShoulder
            {
              OFFSET 2.46616 -1.6653 3.69651
              CHANNELS 3 Zrotation Xrotation Yrotation
              JOINT RightArm
              {
                OFFSET 13.0012 0 0
                CHANNELS 3 Zrotation Xrotation Yrotation
                JOINT RightForeArm
                {
                  OFFSET 28.7848 1.62311e-005 0
                  CHANNELS 3 Zrotation Xrotation Yrotation
                  JOINT RightHand
                  {
                    OFFSET 26.5688 1.62095e-005 0
                    CHANNELS 3 Zrotation Xrotation Yrotation
                    End Site
                    {
                      OFFSET 0 0 0
                    }
                  }
                }
              }
            }
            JOINT LeftShoulder
            {
              OFFSET 2.38034 -1.29275 -3.7523
              CHANNELS 3 Zrotation Xrotation Yrotation
              JOINT LeftArm
              {
                OFFSET 16.3182 6.07031e-005 0
                CHANNELS 3 Zrotation Xrotation Yrotation
                JOINT LeftForeArm
                {
                  OFFSET 27.0901 0 0
                  CHANNELS 3 Zrotation Xrotation Yrotation
                  JOINT LeftHand
                  {
                    OFFSET 24.5451 1.51738e-005 0
                    CHANNELS 3 Zrotation Xrotation Yrotation
                    End Site
                    {
                      OFFSET 0 0 0
                    }
                  }
                }
              }
            }
            JOINT Neck
            {
              OFFSET 5.0226 -0.0266342 0
              CHANNELS 3 Zrotation Xrotation Yrotation
              JOINT Head
              {
                OFFSET 6.69364 2.86102e-005 0
                CHANNELS 3 Zrotation Xrotation Yrotation
                End Site
                {
                  OFFSET 0 0 0
                }
              }
            }
          }
        }
      }
    }
  }
}
MOTION
Frames:	14
Frame Time:	0.0416667
65.4812 87.0173 32.456 92.2636 -34.55 103.167 -165.432 38.6656 79.6575 -76.9913 14.2461 -1.64963 79.0464 14.0962 6.22647 22.861 1.62948 -8.53725 165.441 -4.68575 83.7793 -40.0053 -7.48388 2.78108 73.9148 -9.62161 -1.79538 50.2467 -8.62922 -1.31179 2.88885 8.00618 -90.7598 10.9168 5.40034 -2.0212 -0.744897 5.30616 -2.25745 -23.3696 5.75736 -0.2997 -3.35696 5.75735 -0.299697 92.0196 -21.6636 -105.833 26.9925 4.07217 19.6412 -41.0382 7.47114 -102.573 -41.9912 20.0451 -55.3122 -83.1547 -52.1347 89.233 -11.114 -26.5988 83.0802 46.1452 -9.82264 -100.694 -0.545561 -1.20143 -66.9765 22.6789 0.889086 1.85589 -8.11298 0.084069 2.40444 
70.1136 88.5004 36.5899 90.9236 -31.6296 102.97 -164.641 37.9383 79.375 -67.1866 13.3941 -4.28979 79.9284 14.7036 5.40053 19.9209 0.49097 -8.65396 166.249 -10.5523 85.0925 -33.3403 -6.82315 3.62036 65.1231 -3.06764 -0.685641 54.2369 -10.3087 0.773022 3.11609 7.9105 -90.7577 11.1157 5.85124 -2.07538 -0.544117 5.75424 -2.3316 -23.1849 6.20349 -0.214458 -3.17223 6.20349 -0.214474 92.7927 -19.1596 -105.103 26.4204 -1.87571 22.1828 -35.6317 9.3031 -107.472 -45.2662 20.037 -51.7132 -83.7655 -49.6535 88.0678 -11.8629 -25.3849 89.3813 44.71 -11.5585 -102.863 0.0673072 -1.54304 -65.9039 26.391 -0.993847 1.493 -11.5509 -1.69921 2.11837 
75.3246 90.0493 40.7689 89.374 -28.5263 102.635 -164.397 35.9526 79.31 -56.9674 12.34 -6.94713 77.7314 12.9724 4.95877 20.5003 -0.26334 -6.88197 168.316 -15.2195 87.1029 -28.5481 -6.6325 3.52628 58.3137 2.1593 1.07963 47.4605 -8.08347 4.67977 3.11884 7.77667 -90.6327 11.3806 5.91102 -1.85483 -0.278547 5.82364 -2.11395 -22.9221 6.19421 0.0140737 -2.9094 6.1942 0.0140666 92.7097 -19.0563 -105.35 25.9249 -5.93552 22.0278 -40.3966 11.4288 -107.767 -50.1559 20.283 -47.5229 -84.0484 -46.2729 87.2315 -15.9158 -20.4903 93.1973 39.5269 -12.0333 -105.475 3.19563 -3.2671 -64.0057 29.513 -2.42636 -0.252779 -14.175 -2.41375 1.58068 
80.3372 90.9898 44.6982 86.524 -25.8701 101.877 -164.981 35.2311 79.2419 -48.0485 11.5172 -8.71755 75.3452 11.2159 4.7033 18.1943 -0.432742 -8.33712 170.929 -15.9561 90.0016 -28.9554 -9.77517 2.62433 58.6528 2.32892 0.816782 25.9054 -0.756304 6.24168 3.02013 7.54557 -90.4277 11.8334 5.80508 -1.47154 0.17432 5.73467 -1.72637 -22.4654 5.978 0.347408 -2.45279 5.97802 0.347407 92.4771 -19.695 -105.623 25.9907 -10.2927 21.0074 -43.3441 11.8377 -106.75 -52.7987 20.3303 -45.362 -84.6606 -44.2344 85.9899 -20.0774 -15.3654 94.7404 34.3059 -11.655 -107.629 7.36664 -5.5849 -63.017 31.0347 -3.28752 -1.87318 -14.1013 -2.37169 0.0106826 
85.1292 91.1013 48.0691 84.4251 -24.3235 101.941 -165.77 34.638 80.0118 -41.6049 11.9247 -9.6885 72.03 8.58866 4.37469 14.7673 -2.59573 -7.29449 172.316 -14.5661 91.9466 -33.9486 -13.8749 1.73237 60.8417 0.521918 -0.0515178 19.8092 1.10322 7.22552 2.90545 7.3911 -90.3874 12.1388 5.59228 -1.39133 0.478874 5.52561 -1.63679 -22.1533 5.75107 0.359311 -2.14068 5.75103 0.35929 92.6641 -19.9653 -105.063 26.8744 -15.2016 19.2974 -46.493 10.7773 -104.241 -51.4303 19.3716 -44.6722 -85.7111 -45.5092 84.4971 -23.3639 -10.9196 94.8735 31.1554 -11.4217 -109.16 13.4347 -8.62095 -60.867 31.3874 -3.24725 -2.27386 -12.5334 -2.08292 -0.736324 
89.7052 90.8238 51.0816 84.3577 -23.5031 103.079 -167.415 31.866 81.7173 -36.7991 12.0853 -9.15983 69.8604 6.80699 3.63343 13.0914 -2.74694 -8.15612 171.774 -12.6463 92.0108 -42.9464 -15.6519 1.5023 62.4312 -0.870033 -1.4608 23.1028 -0.898675 9.61064 2.73681 7.37869 -90.4586 12.1625 5.22322 -1.49491 0.500967 5.15238 -1.72388 -22.1189 5.43039 0.148593 -2.10621 5.43035 0.148572 91.6858 -22.2747 -106.329 29.7045 -18.3185 20.8791 -48.3746 8.1543 -100.886 -48.2693 18.0688 -44.732 -85.5848 -48.0112 85.0737 -25.0601 -8.61091 91.402 31.0513 -11.2019 -108.888 17.6951 -10.3524 -58.1769 32.056 -2.7564 -3.26326 -12.6118 -1.27097 0.154198 
94.5245 90.4042 53.8565 85.7317 -21.8001 104.861 -167.52 27.7598 82.6914 -39.5372 14.5389 -8.97387 73.9828 11.0011 7.07919 3.3002 0.0994327 -17.8437 170.129 -10.3307 91.1865 -54.7684 -10.6553 1.68777 64.2038 -1.96793 -2.55715 18.528 0.870784 8.99729 2.42428 7.52559 -90.6186 11.8631 4.5299 -1.71758 0.198648 4.4499 -1.91559 -22.3992 4.83626 -0.273792 -2.3866 4.83621 -0.273801 90.5872 -24.5952 -107.743 34.2014 -19.1185 23.4721 -48.8592 2.36438 -96.8735 -45.3876 16.2972 -43.4942 -85.6223 -50.2071 85.3298 -26.9274 -5.82859 83.4097 32.086 -9.53464 -105.717 20.9974 -11.3096 -55.2003 31.0955 -1.58614 -4.07369 -11.5159 0.115657 0.536185 
99.2539 89.7469 56.6415 87.3535 -19.9837 105.84 -167.86 21.2723 83.5479 -40.5103 14.8462 -8.22427 85.3164 18.7059 2.92468 -10.7866 -8.86674 -14.7893 168.669 -6.0653 90.2866 -68.8027 -1.24085 0.936637 66.6626 -3.73877 -3.35576 14.9258 2.40926 8.40875 2.03971 7.70622 -90.6497 11.4926 3.75452 -1.67749 -0.174198 3.67704 -1.84127 -22.7518 4.08484 -0.469887 -2.73913 4.08482 -0.4699 89.6213 -27.1095 -108.695 38.6876 -15.8945 24.4235 -51.3453 -2.86424 -88.3303 -44.322 16.3236 -44.505 -85.7673 -52.1633 85.3868 -28.1906 -3.13092 75.0818 30.1038 -7.68606 -103.672 22.8429 -11.4187 -52.1816 28.473 -0.527899 -5.79972 -9.18096 1.6679 1.07577 
103.405 88.9966 59.3228 86.9817 -17.3087 104.391 -168.866 16.8158 82.5012 -41.1946 16.7682 -7.25732 90.4267 23.3379 3.54322 -7.66195 -13.354 -8.41062 167.427 1.75398 89.7369 -82.5004 6.2335 -0.451101 68.685 -5.87831 -4.62473 12.806 3.93448 6.77113 1.51084 7.72397 -90.435 11.4422 2.80292 -1.15061 -0.22632 2.74957 -1.27292 -22.7853 3.01905 -0.254315 -2.77268 3.01907 -0.254321 89.0591 -30.6862 -108.34 40.6444 -10.2532 27.4995 -54.3248 -9.51437 -85.0984 -42.1766 15.6031 -44.861 -85.9751 -54.9453 85.4621 -26.7887 -3.86056 66.1649 29.495 -7.03631 -102.817 19.2499 -9.91235 -52.8259 26.5694 0.238164 -7.40143 -7.33949 2.90792 1.12247 
107.368 87.909 61.7937 86.7026 -15.1729 100.688 -169.716 12.4861 79.6727 -41.1896 15.6288 -7.0743 92.7767 25.8851 3.83223 -2.20498 -9.20648 -9.59063 168.567 11.4301 87.5465 -95.4827 6.40377 -2.65903 70.9207 -8.35534 -6.74481 12.1292 3.54021 8.18627 1.05283 7.90115 -89.9295 11.0721 2.12851 -0.066164 -0.597134 2.12353 -0.159828 -23.1451 2.04994 0.576867 -3.13247 2.04994 0.576867 88.2204 -34.1209 -108.585 39.531 -3.30583 34.7242 -58.3646 -11.7943 -84.5661 -44.6399 14.9469 -41.0413 -85.4767 -58.0764 86.5564 -24.8895 -4.90929 51.1086 29.807 -6.30485 -101.403 18.564 -10.0567 -54.9165 27.6617 0.514646 -8.1912 -6.89786 3.59894 0.0713677 
111.273 86.7388 64.0415 84.9865 -10.0292 99.2617 -171.673 10.765 79.2343 -43.2735 16.1994 -5.09753 95.9314 27.9879 2.22114 4.37701 -4.68593 -11.1244 169.71 21.2174 88.7295 -105.751 1.66255 -3.32919 72.6782 -10.5017 -7.81037 11.3941 3.82676 8.16382 0.389265 7.95961 -89.7622 10.9526 0.885272 0.389671 -0.718068 0.90158 0.35031 -23.2546 0.72723 0.637715 -3.24193 0.727239 0.637719 88.2471 -35.2633 -108.108 38.2186 1.18669 42.8733 -56.6909 -12.0089 -84.0407 -44.7386 14.2827 -39.4578 -85.0953 -58.8815 87.1741 -23.3174 -4.34713 34.7558 30.4759 -6.49798 -101.492 13.9583 -8.19621 -56.9983 27.7519 0.382968 -9.06605 -4.58162 3.83035 -0.670233 
115.092 85.7573 66.2376 84.4475 -5.38802 99.7695 -173.034 7.67155 81.106 -44.5368 17.7822 -3.14088 100.889 30.9642 -0.24588 4.33532 -4.26454 -11.6955 171.484 30.3352 90.6843 -112.656 -1.6184 -3.66479 74.0945 -11.8622 -8.50587 10.9789 3.07082 10.0824 -0.0715142 8.14136 -89.8894 10.5918 -0.0914181 0.227363 -1.07912 -0.0813221 0.231156 -23.6143 -0.155539 0.189366 -3.60167 -0.155544 0.189358 90.2982 -33.1698 -105.03 39.6039 1.96088 50.3338 -51.8487 -11.4404 -82.755 -44.6928 14.5312 -40.0911 -85.7353 -57.31 86.1048 -22.4025 -1.57526 14.5932 29.8225 -4.64427 -98.4446 11.8952 -7.60052 -59.7069 27.6117 0.267782 -9.88434 -2.33417 3.98207 0.359469 
119.671 85.6564 68.1299 84.0368 -0.378624 100.524 -174.004 2.37895 83.7658 -41.9552 19.2696 -1.34178 103.405 32.193 -2.41858 6.75384 -1.99761 -13.3389 171.044 37.6874 92.1739 -114.203 -0.944503 -3.71309 76.577 -13.4399 -9.00783 10.5551 3.55996 9.37848 -0.606316 8.27451 -90.0961 10.3249 -1.25185 -0.082398 -1.34549 -1.25425 -0.027224 -23.885 -1.16919 -0.454865 -3.87234 -1.16919 -0.454878 92.802 -30.8544 -100.91 43.8339 0.316845 53.6533 -44.721 -12.8292 -78.6218 -57.7981 18.0178 -37.5765 -86.3028 -54.1225 84.8799 -20.8892 0.379802 -1.46088 27.8153 -3.47156 -96.7037 11.0987 -7.13134 -59.4049 28.174 0.00878875 -11.0731 -2.96496 4.22068 1.57264 
125.127 86.1811 69.7759 83.7698 2.01948 102.031 -173.548 -2.75515 86.9388 -38.4513 23.1866 -0.203936 98.4288 30.8072 1.40524 13.7608 0.514408 -12.9009 170.638 43.6255 94.6388 -110.974 2.60949 -3.50162 79.7672 -15.2426 -9.02374 12.4331 3.53944 7.93359 -1.05062 8.28862 -90.3832 10.2923 -2.26835 -0.565894 -1.37672 -2.29108 -0.465466 -23.9239 -1.9934 -1.2217 -3.91121 -1.99339 -1.22168 93.6337 -29.2778 -99.6899 43.0044 3.58314 60.6522 -46.8985 -13.8833 -78.6054 -53.9751 19.5249 -43.1283 -86.4805 -51.6316 84.2571 -19.6388 -0.181911 -12.7109 26.1697 -2.7897 -95.6053 12.6292 -8.42169 -61.9151 29.0877 0.455449 -11.6486 -5.19793 4.92229 2.16202 
